# AST/ASF file generated using VICON BodyLanguage
# -----------------------------------------------
:version 1.10
:name VICON
:units
  mass 1.0
  length 0.45
  angle deg
:documentation
   .ast/.asf automatically generated from VICON data using
   VICON BodyBuilder and BodyLanguage model FoxedUp or BRILLIANT.MOD
:root
   order TX TY TZ RX RY RZ
   axis XYZ
   position 0 0 0  
   orientation 0 0 0 
:bonedata
  begin
     id 1 
     name lhipjoint
     direction 0.623529 -0.717805 0.309788 
     length 2.23224 
     axis 0 0 0  XYZ
  end
  begin
     id 2 
     name lfemur
     direction 0.34202 -0.939693 0  
     length 7.11402  
     axis 0 0 20  XYZ
    dof rx ry rz
    limits (-160.0 20.0)
           (-70.0 70.0)
           (-60.0 70.0)
  end
  begin
     id 3 
     name ltibia
     direction 0.34202 -0.939693 0   
     length 6.78496   
     axis 0 0 20   XYZ
    dof rx
    limits (-10.0 170.0)
  end
  begin
     id 4 
     name lfoot
     direction 0.125078 -0.343648 0.930732   
     length 1.84054   
     axis -90 7.62852e-016 20   XYZ
    dof rx rz
    limits (-45.0 90.0)
           (-70.0 20.0)
  end
  begin
     id 5 
     name ltoes
     direction 1.53565e-011 -4.21893e-011 1   
     length 0.916474   
     axis -90 7.62852e-016 20   XYZ
    dof rx
    limits (-90.0 20.0)
  end
  begin
     id 6 
     name rhipjoint
     direction -0.564688 -0.757748 0.327026   
     length 2.11457  
     axis 0 0 0  XYZ 
  end
  begin
     id 7 
     name rfemur
     direction -0.34202 -0.939693 0   
     length 7.14609   
     axis 0 0 -20   XYZ
    dof rx ry rz
    limits (-160.0 20.0)
           (-70.0 70.0)
           (-70.0 60.0)
  end
  begin
     id 8 
     name rtibia
     direction -0.34202 -0.939693 0   
     length 6.78101   
     axis 0 0 -20   XYZ
    dof rx
    limits (-10.0 170.0)
 end
 begin
     id 9 
     name rfoot
     direction -0.0992671 -0.272734 0.956955   
     length 1.96168  
     axis -90 -7.62852e-016 -20   XYZ
    dof rx rz
    limits (-45.0 90.0)
           (-20.0 70.0)
  end
  begin
     id 10 
     name rtoes
     direction -1.5356e-011 -4.21891e-011 1   
     length 0.982933   
     axis -90 -7.62852e-016 -20   XYZ
    dof rx
    limits (-90.0 20.0)
  end
  begin
     id 11 
     name lowerback
     direction -0.00596953 0.998668 0.0512524   
     length 1.87557   
     axis 0 0 0   XYZ
    dof rx ry rz
    limits (-20.0 45.0)
           (-30.0 30.0)
           (-30.0 30.0)
  end
  begin
     id 12 
     name upperback
     direction 0.00584879 0.999652 0.0257308   
     length 1.87883   
     axis 0 0 0   XYZ
    dof rx ry rz
    limits (-20.0 45.0)
           (-30.0 30.0)
           (-30.0 30.0)
  end
  begin
     id 13 
     name thorax
     direction 0.010104 0.999947 0.00178881   
     length 1.87779   
     axis 0 0 0   XYZ
    dof rx ry rz
    limits (-20.0 45.0)
           (-30.0 30.0)
           (-30.0 30.0)
  end
  begin
     id 14 
     name lowerneck
     direction 0.0120771 0.995934 -0.0892773   
     length 1.40897   
     axis 0 0 0   XYZ
    dof rx ry rz
    limits (-20.0 45.0)
           (-30.0 30.0)
           (-30.0 30.0)
  end
  begin
     id 15 
     name upperneck
     direction -0.030568 0.999465 -0.0116366   
     length 1.38661   
     axis 0 0 0   XYZ
    dof rx ry rz
    limits (-20.0 45.0)
           (-30.0 30.0)
           (-30.0 30.0)
  end
  begin
     id 16
     name head
     direction -0.0170715 0.999854 -0.00104426  
     length 1.47052  
     axis 0 0 0   XYZ
    dof rx ry rz
    limits (-20.0 45.0)
           (-30.0 30.0)
           (-30.0 30.0)
  end
  begin
     id 17 
     name lclavicle
     direction 0.977763 0.206143 0.038532  
     length 3.02424  
     axis 0 0 0   XYZ
    dof ry rz
    limits (-20.0 10.0)
           (0.0 20.0)
  end
  begin
     id 18 
     name lhumerus
     direction 1 -4.48965e-011 -2.62654e-027   
     length 4.68382   
     axis 180 -30 -90   XYZ
    dof rx ry rz
    limits (-60.0 90.0)
           (-90.0 90.0)
           (-90.0 90.0)
  end
  begin
     id 19
     name lradius
     direction 1 -4.48973e-011 -1.54954e-027   
     length 2.98124   
     axis 180 -30 -90   XYZ
    dof rx
    limits (-10.0 170.0)
  end
  begin
     id 20
     name lwrist
     direction 1 -4.48959e-011 7.20928e-028   
     length 1.49062   
     axis -5.52449e-016 90 90   XYZ
    dof ry
    limits (-180.0 0.0)
 end
  begin
     id 21 
     name lhand
     direction 1 -4.48971e-011 1.44186e-027   
     length 0.707595   
     axis -9.20027e-016 90 90   XYZ
    dof rx rz
    limits (-90.0 90.0)
           (-45.0 45.0)
  end
  begin
     id 22 
     name lfingers
     direction 1 -4.48985e-011 2.88371e-027   
     length 0.570481   
     axis -1.84005e-015 90 90   XYZ
    dof rx
    limits (0.0 90.0)
  end
  begin
     id 23
     name lthumb
     direction 0.707107 -6.34929e-011 0.707107   
     length 0.819101   
     axis -90 45 2.85299e-015   XYZ
    dof rx rz
    limits (-45.0 45.0)
           (-45.0 45.0)
  end
  begin
     id 24 
     name rclavicle
     direction -0.958661 0.284411 -0.00895327   
     length 3.11921  
     axis 0 0 0   XYZ 
    dof ry rz
    limits (-10.0 20.0)
           (-20.0 0.0)
  end
  begin
     id 25 
     name rhumerus
     direction -1 -4.48963e-011 -4.22193e-027  
     length 4.75876   
     axis 180 30 90   XYZ
    dof rx ry rz
    limits (-90.0 60.0)
           (-90.0 90.0)
           (-90.0 90.0)
  end
  begin
     id 26 
     name rradius
     direction -1 -4.48968e-011 -1.07616e-027   
     length 2.93293   
     axis 180 30 90   XYZ
    dof rx
    limits (-10.0 170.0)
  end
  begin
     id 27 
     name rwrist
     direction -1 -4.48965e-011 7.20928e-028   
     length 1.46647   
     axis -5.52449e-016 -90 -90   XYZ
    dof ry
    limits (-180.0 0.0)
  end
  begin
     id 28
     name rhand
     direction -1 -4.48971e-011 1.44186e-027   
     length 0.831748   
     axis -9.20027e-016 -90 -90   XYZ
    dof rx rz
    limits (-90.0 90.0)
           (-45.0 45.0)
  end
  begin
     id 29
     name rfingers
     direction -1 -4.48961e-011 2.88371e-027   
     length 0.670577   
     axis -1.84005e-015 -90 -90   XYZ
    dof rx
    limits (0.0 90.0)
  end
  begin
     id 30
     name rthumb
     direction -0.707107 -6.34929e-011 0.707107   
     length 0.962818   
     axis -90 -45 -2.85299e-015   XYZ
    dof rx rz
    limits (-45.0 45.0)
           (-45.0 45.0)
  end
:hierarchy
  begin
    root lhipjoint rhipjoint lowerback
    lhipjoint lfemur
    lfemur ltibia
    ltibia lfoot
    lfoot ltoes
    rhipjoint rfemur
    rfemur rtibia
    rtibia rfoot
    rfoot rtoes
    lowerback upperback
    upperback thorax
    thorax lowerneck lclavicle rclavicle
    lowerneck upperneck
    upperneck head
    lclavicle lhumerus
    lhumerus lradius
    lradius lwrist
    lwrist lhand lthumb
    lhand lfingers
    rclavicle rhumerus
    rhumerus rradius
    rradius rwrist
    rwrist rhand rthumb
    rhand rfingers
  end

#!OML:ASF E:\id_vita\Project 1\Capture day 1\Session 1\Female.ASF
:FULLY-SPECIFIED
:DEGREES
390
root 21.8338 16.3183 -7.00287 -164.55 -0.666505 -178.56
lowerback -13.4747 0.647923 -1.06233
upperback -4.85909 0.404713 0.0472625
thorax 2.43302 -0.0451008 0.699484
lowerneck 3.07388 0.651412 -4.08051
upperneck -1.55943 0.794981 4.75475
head -1.05703 0.349758 2.19042
rclavicle 9.05868e-015 4.57205e-015
rhumerus 57.0341 1.77507 -41.7852
rradius 52.0719
rwrist 12.7325
rhand -34.191 21.1326
rfingers 7.12502
rthumb -7.3639 -8.71925
lclavicle 9.05868e-015 4.57205e-015
lhumerus 66.2243 -3.42123 30.1442
lradius 41.6353
lwrist -14.1679
lhand -35.0553 36.9425
lfingers 7.12502
lthumb -8.19818 66.7634
rfemur -16.8754 7.95958 27.5802
rtibia 24.9122
rfoot -18.2309 -11.5967
rtoes -3.3638
lfemur -41.8639 3.4936 -15.2967
ltibia 54.5894
lfoot -16.435 -11.6639
ltoes -9.47565
391
root 21.8393 16.3242 -6.98706 -164.431 -0.664332 -178.631
lowerback -13.5465 0.636152 -1.13514
upperback -4.82873 0.401993 0.0365312
thorax 2.50272 -0.0457467 0.7293
lowerneck 2.88729 0.655457 -3.8339
upperneck -1.59735 0.813738 4.57415
head -1.03322 0.362334 2.08551
rclavicle -2.4654e-015 -1.13307e-014
rhumerus 57.1058 1.62762 -41.756
rradius 52.0421
rwrist 12.9691
rhand -33.9649 21.4847
rfingers 7.12502
rthumb -7.14572 -8.37462
lclavicle -2.4654e-015 -1.13307e-014
lhumerus 66.2579 -3.34258 29.9412
lradius 41.8912
lwrist -13.7112
lhand -34.8343 37.1154
lfingers 7.12502
lthumb -7.98483 66.9446
rfemur -17.0525 7.67937 27.5303
rtibia 24.8269
rfoot -18.2433 -11.2869
rtoes -3.37919
lfemur -42.0319 3.37608 -15.3317
ltibia 54.5322
lfoot -16.2152 -11.6527
ltoes -8.914
392
root 21.8432 16.3274 -6.97103 -164.293 -0.689995 -178.678
lowerback -13.5677 0.620667 -1.09713
upperback -4.84965 0.373576 0.0131158
thorax 2.49348 -0.061811 0.679107
lowerneck 3.00358 0.489574 -4.03009
upperneck -1.89371 0.590313 4.50683
head -1.13831 0.252779 2.10526
rclavicle -5.31438e-015 6.75868e-015
rhumerus 57.1326 1.58115 -41.5144
rradius 52.1867
rwrist 12.5916
rhand -33.627 21.9432
rfingers 7.12502
rthumb -6.8195 -7.927
lclavicle -5.31438e-015 6.75868e-015
lhumerus 66.2072 -3.25706 29.7199
lradius 42.0736
lwrist -13.5249
lhand -34.4139 37.4887
lfingers 7.12502
lthumb -7.5791 67.3329
rfemur -17.2448 7.52933 27.507
rtibia 24.7449
rfoot -18.0924 -11.3384
rtoes -4.04886
lfemur -42.2365 3.32319 -15.3589
ltibia 54.4772
lfoot -16.0265 -11.7229
ltoes -8.45307
393
root 21.8482 16.3278 -6.9543 -164.254 -0.697877 -178.582
lowerback -13.4408 0.591089 -0.858213
upperback -4.87368 0.302346 0.0168234
thorax 2.40389 -0.0979757 0.536925
lowerneck 2.72133 0.672932 -4.19771
upperneck -1.62712 0.83447 4.72124
head -1.01954 0.375726 2.19959
rclavicle -5.60635e-015 -3.77691e-015
rhumerus 57.1295 1.69422 -41.1623
rradius 52.5399
rwrist 12.0109
rhand -33.5626 22.0424
rfingers 7.12502
rthumb -6.75732 -7.82982
lclavicle -5.60635e-015 -3.77691e-015
lhumerus 66.0635 -3.12907 29.333
lradius 42.1849
lwrist -13.574
lhand -34.033 37.9835
lfingers 7.12502
lthumb -7.21146 67.8407
rfemur -17.331 7.53387 27.6416
rtibia 24.6829
rfoot -17.8804 -11.5271
rtoes -4.88496
lfemur -42.3538 3.45868 -15.2664
ltibia 54.4283
lfoot -15.9611 -11.8913
ltoes -8.50412
394
root 21.8534 16.331 -6.93701 -164.229 -0.684098 -178.497
lowerback -13.2879 0.562725 -0.722841
upperback -4.88896 0.246168 0.09437
thorax 2.30728 -0.124735 0.532584
lowerneck 2.75148 0.711023 -4.58575
upperneck -1.77774 0.879645 4.92856
head -1.08081 0.398056 2.33949
rclavicle -6.16504e-015 -4.57205e-015
rhumerus 57.2174 1.7727 -40.9836
rradius 52.7316
rwrist 11.8643
rhand -33.6508 22.0706
rfingers 7.12502
rthumb -6.84253 -7.79882
lclavicle -6.16504e-015 -4.57205e-015
lhumerus 65.9202 -3.02368 29.0181
lradius 42.3213
lwrist -13.8809
lhand -33.6791 38.6472
lfingers 7.12502
lthumb -6.86979 68.5157
rfemur -17.4158 7.47683 27.7463
rtibia 24.6587
rfoot -17.8955 -11.3293
rtoes -4.6679
lfemur -42.4334 3.61574 -15.1973
ltibia 54.369
lfoot -15.9195 -12.0128
ltoes -8.57043
395
root 21.8585 16.3366 -6.92072 -164.118 -0.627573 -178.516
lowerback -13.2419 0.528607 -0.892693
upperback -4.914 0.214114 0.24857
thorax 2.2545 -0.139213 0.78409
lowerneck 2.77215 0.727789 -5.0188
upperneck -1.97454 0.895865 5.07751
head -1.15399 0.407958 2.47004
rclavicle -1.88234e-015 4.37326e-015
rhumerus 57.3606 1.84726 -40.7217
rradius 52.8495
rwrist 11.7594
rhand -33.6842 21.8837
rfingers 7.12502
rthumb -6.87474 -7.98464
lclavicle -1.88234e-015 4.37326e-015
lhumerus 65.7915 -2.83749 29.0931
lradius 42.3552
lwrist -13.8517
lhand -33.8821 38.2236
lfingers 7.12502
lthumb -7.06573 68.0857
rfemur -17.6338 7.21512 27.738
rtibia 24.7107
rfoot -18.1183 -10.887
rtoes -3.99292
lfemur -42.5495 3.70131 -15.2307
ltibia 54.2686
lfoot -15.862 -12.0181
ltoes -8.69083
396
root 21.8654 16.3406 -6.9043 -163.907 -0.620891 -178.584
lowerback -13.2734 0.546501 -0.846281
upperback -4.9731 0.226224 0.123416
thorax 2.21042 -0.138346 0.629404
lowerneck 2.868 0.703725 -5.07208
upperneck -2.22087 0.866652 5.23981
head -1.25053 0.389227 2.53681
rclavicle -1.64735e-015 -1.59028e-015
rhumerus 57.2398 1.82027 -40.5595
rradius 53.0597
rwrist 11.4705
rhand -33.9299 21.354
rfingers 7.12502
rthumb -7.11189 -8.50653
lclavicle -1.64735e-015 -1.59028e-015
lhumerus 65.8708 -2.78085 28.7979
lradius 42.4294
lwrist -13.6028
lhand -34.19 37.8755
lfingers 7.12502
lthumb -7.36301 67.7274
rfemur -17.983 6.93192 27.7044
rtibia 24.7618
rfoot -18.1964 -10.6338
rtoes -3.97809
lfemur -42.802 3.75391 -15.3141
ltibia 54.201
lfoot -15.9372 -11.9028
ltoes -9.46821
397
root 21.8749 16.3506 -6.88771 -163.725 -0.664692 -178.622
lowerback -13.2737 0.597316 -0.887799
upperback -5.01164 0.294444 0.0923664
thorax 2.1688 -0.106271 0.630592
lowerneck 2.9234 0.613012 -5.28253
upperneck -2.41748 0.743726 5.39129
head -1.32024 0.326441 2.63115
rclavicle -2.74882e-016 -6.36111e-015
rhumerus 57.0328 1.58023 -40.1838
rradius 53.2539
rwrist 11.3602
rhand -33.9526 21.1317
rfingers 7.12502
rthumb -7.13381 -8.7281
lclavicle -2.74882e-016 -6.36111e-015
lhumerus 66.1179 -2.75161 28.9124
lradius 42.4118
lwrist -13.5925
lhand -34.0768 37.8154
lfingers 7.12502
lthumb -7.25374 67.671
rfemur -18.2559 7.64036 27.4848
rtibia 24.8596
rfoot -18.4481 -10.2146
rtoes 1.27119
lfemur -43.022 3.78888 -15.357
ltibia 54.1138
lfoot -16.2755 -11.6609
ltoes -10.7832
398
root 21.8815 16.338 -6.86994 -163.561 -0.694343 -178.596
lowerback -13.2659 0.616959 -0.980048
upperback -5.02893 0.327056 0.183276
thorax 2.14433 -0.0892585 0.782057
lowerneck 2.96092 0.547882 -5.41864
upperneck -2.62589 0.654224 5.29442
head -1.38893 0.285304 2.62763
rclavicle -3.03613e-015 3.57812e-015
rhumerus 57.0591 1.14275 -40.3164
rradius 53.0798
rwrist 12.2213
rhand -33.3019 21.7968
rfingers 7.12502
rthumb -6.50564 -8.08329
lclavicle -3.03613e-015 3.57812e-015
lhumerus 66.2225 -2.66156 29.01
lradius 42.4461
lwrist -13.5791
lhand -34.111 37.669
lfingers 7.12502
lthumb -7.28675 67.5236
rfemur -18.6177 7.08279 27.7328
rtibia 24.9282
rfoot -17.8483 -11.0828
rtoes -5.13741
lfemur -43.3229 3.91366 -15.3345
ltibia 54.115
lfoot -16.5465 -11.5293
ltoes -11.3116
399
root 21.8879 16.3412 -6.85359 -163.368 -0.679667 -178.601
lowerback -13.2897 0.532106 -1.04875
upperback -5.0518 0.21572 0.265869
thorax 2.13444 -0.145446 0.890376
lowerneck 2.82106 0.616478 -5.51945
upperneck -2.66269 0.748384 5.23275
head -1.38174 0.336669 2.62339
rclavicle -1.84808e-016 -3.37934e-015
rhumerus 57.2169 1.66854 -39.5345
rradius 53.4958
rwrist 10.5571
rhand -35.0646 20.4502
rfingers 7.12502
rthumb -8.20714 -9.37043
lclavicle -1.84808e-016 -3.37934e-015
lhumerus 65.9478 -2.41237 28.6687
lradius 42.6395
lwrist -13.3596
lhand -34.2742 37.4764
lfingers 7.12502
lthumb -7.44423 67.3254
rfemur -18.8993 7.33166 27.6632
rtibia 24.9656
rfoot -17.8282 -11.1082
rtoes -3.93881
lfemur -43.5872 4.15891 -15.3739
ltibia 54.0643
lfoot -16.6858 -11.5138
ltoes -11.2832
